<svg width="18" height="19" viewBox="0 0 18 19" fill="none" xmlns="http://www.w3.org/2000/svg">
<path d="M5.53033 4.53033C6.66365 3.39701 7.10685 2.96784 7.55695 2.74479C8.46622 2.29421 9.53378 2.29421 10.4431 2.74479C10.8932 2.96784 11.3364 3.39701 12.4697 4.53033L14.9356 6.99623C15.5636 7.62428 15.9949 8.05685 16.2995 8.42985C16.5934 8.78973 16.7285 9.04679 16.7934 9.30422C16.8583 9.56165 16.8612 9.852 16.7731 10.3082C16.6818 10.781 16.5071 11.3664 16.2518 12.2171L15.1368 15.9339C14.9258 16.6374 14.7848 17.1031 14.6366 17.4466C14.4963 17.772 14.3795 17.9125 14.2581 18.0029C14.1367 18.0932 13.9685 18.1646 13.6165 18.2056C13.245 18.2488 12.7584 18.25 12.0239 18.25H5.97612C5.24163 18.25 4.75504 18.2488 4.38351 18.2056C4.0315 18.1646 3.86331 18.0932 3.7419 18.0029C3.62048 17.9125 3.50373 17.772 3.36335 17.4466C3.21519 17.1031 3.07424 16.6374 2.86319 15.9339L1.74816 12.2171C1.49294 11.3664 1.31825 10.781 1.22691 10.3082C1.13879 9.852 1.14174 9.56165 1.20664 9.30422C1.27155 9.04679 1.40661 8.78973 1.70047 8.42985C2.00506 8.05685 2.43639 7.62427 3.06443 6.99623L5.53033 4.53033Z" stroke="white" stroke-width="1.5"/>
<path d="M9 15.5V13" stroke="white" stroke-width="1.5" stroke-linecap="round" stroke-linejoin="round"/>
</svg>
