<svg width="31" height="60" viewBox="0 0 31 60" fill="none" xmlns="http://www.w3.org/2000/svg">
<line x1="15.5" y1="-2.18557e-08" x2="15.5" y2="60" stroke="black" stroke-opacity="0.08" stroke-dasharray="2 2"/>
<rect x="15.4852" y="12.4558" width="24.0833" height="24.0833" rx="5" transform="rotate(45 15.4852 12.4558)" fill="#D9BA4B"/>
<g clip-path="url(#clip0_819_1370)">
<path d="M9.29143 31.7759L11.6023 35.0949C12.0323 35.706 12.6002 36.2114 13.2617 36.5718C13.3889 36.644 13.4942 36.748 13.5671 36.8733C13.6399 36.9985 13.6775 37.1405 13.6761 37.2847V38.0111C13.6761 38.0779 13.6895 38.1441 13.7155 38.2058C13.7416 38.2676 13.7798 38.3237 13.8279 38.3709C13.876 38.4182 13.9332 38.4557 13.9961 38.4813C14.0589 38.5068 14.1264 38.52 14.1944 38.52H19.0661C19.1342 38.52 19.2016 38.5068 19.2645 38.4813C19.3274 38.4557 19.3845 38.4182 19.4326 38.3709C19.4808 38.3237 19.5189 38.2676 19.545 38.2058C19.571 38.1441 19.5844 38.0779 19.5844 38.0111V36.6331C19.5896 36.1692 19.751 35.72 20.0434 35.3556C20.5784 34.686 20.871 33.8607 20.8753 33.0098L20.8761 30.2994C20.8833 30.1706 20.8632 30.0418 20.8172 29.921C20.7713 29.8002 20.7003 29.69 20.6089 29.5974C20.5175 29.5048 20.4076 29.4317 20.2861 29.3828C20.1645 29.3339 20.034 29.3102 19.9027 29.3131H19.8783C19.6445 29.2974 19.4137 29.3728 19.2362 29.523C19.0586 29.6733 18.9486 29.8862 18.9299 30.1155V29.337C18.9125 29.1085 18.8039 28.8961 18.6278 28.7459C18.4517 28.5957 18.2223 28.5198 17.9895 28.5347L17.9619 28.5347C17.4199 28.5347 16.9843 28.9062 16.9843 29.3647L16.984 28.6177C16.974 28.3973 16.8816 28.1882 16.7245 28.0304C16.5674 27.8727 16.3566 27.7773 16.1323 27.7624C15.5413 27.7018 15.039 28.0934 15.0389 28.5857L15.0388 24.6742C15.0384 24.3737 14.9165 24.0856 14.6999 23.8732C14.4833 23.6608 14.1897 23.5416 13.8836 23.5416C13.5775 23.5416 13.2839 23.6609 13.0673 23.8732C12.8507 24.0856 12.7288 24.3737 12.7283 24.6742V31.4823L11.0453 30.4458C10.8542 30.3281 10.6365 30.2583 10.4115 30.2426C10.1864 30.2269 9.96088 30.2658 9.75474 30.3558C9.14065 30.641 8.951 31.287 9.29143 31.7759Z" fill="white"/>
<path d="M10.516 20.5395L10.8271 20.2341C10.8684 20.1936 10.9243 20.1708 10.9827 20.1708C11.041 20.1708 11.097 20.1936 11.1382 20.2341L12.2086 21.285C12.2499 21.3255 12.273 21.3804 12.273 21.4377C12.273 21.495 12.2499 21.55 12.2086 21.5905L11.8975 21.8959C11.8563 21.9364 11.8003 21.9591 11.742 21.9591C11.6836 21.9591 11.6277 21.9364 11.5864 21.8959L10.516 20.845C10.4748 20.8045 10.4516 20.7495 10.4516 20.6922C10.4516 20.6349 10.4748 20.58 10.516 20.5395Z" fill="white"/>
<path d="M15.5606 21.2829L16.6288 20.2341C16.67 20.1936 16.726 20.1708 16.7843 20.1708C16.8427 20.1708 16.8986 20.1935 16.9399 20.2341L17.251 20.5394C17.2922 20.58 17.3154 20.6349 17.3154 20.6922C17.3154 20.7495 17.2922 20.8044 17.251 20.8449L16.1828 21.8937C16.1415 21.9343 16.0856 21.957 16.0272 21.957C15.9689 21.957 15.9129 21.9343 15.8717 21.8938L15.5606 21.5884C15.5402 21.5683 15.524 21.5445 15.5129 21.5183C15.5018 21.4921 15.4962 21.464 15.4962 21.4356C15.4961 21.4073 15.5018 21.3792 15.5129 21.353C15.5239 21.3268 15.5401 21.303 15.5606 21.2829Z" fill="white"/>
<path d="M18.2066 23.1084H16.6952C16.5737 23.1084 16.4752 23.2051 16.4752 23.3244V23.7564C16.4752 23.8757 16.5737 23.9724 16.6952 23.9724H18.2066C18.3281 23.9724 18.4266 23.8757 18.4266 23.7564V23.3244C18.4266 23.2051 18.3281 23.1084 18.2066 23.1084Z" fill="white"/>
<path d="M11.074 23.1084H9.56045C9.43895 23.1084 9.34045 23.2051 9.34045 23.3244V23.7564C9.34045 23.8757 9.43895 23.9724 9.56045 23.9724H11.074C11.1955 23.9724 11.294 23.8757 11.294 23.7564V23.3244C11.294 23.2051 11.1955 23.1084 11.074 23.1084Z" fill="white"/>
<path d="M14.1035 19.08H13.6635C13.542 19.08 13.4435 19.1767 13.4435 19.296V20.7798C13.4435 20.8991 13.542 20.9958 13.6635 20.9958H14.1035C14.225 20.9958 14.3235 20.8991 14.3235 20.7798V19.296C14.3235 19.1767 14.225 19.08 14.1035 19.08Z" fill="white"/>
</g>
<defs>
<clipPath id="clip0_819_1370">
<rect width="12" height="20" fill="white" transform="translate(9 19)"/>
</clipPath>
</defs>
</svg>
