<svg width="24" height="24" viewBox="0 0 24 24" fill="none" xmlns="http://www.w3.org/2000/svg">
<rect x="0.75" y="0.75" width="22.5" height="22.5" rx="11.25" stroke="white" stroke-width="1.5"/>
<path d="M10.25 6.5C10.25 5.5335 11.0335 4.75 12 4.75C12.9665 4.75 13.75 5.5335 13.75 6.5V8.5C13.75 9.4665 12.9665 10.25 12 10.25C11.0335 10.25 10.25 9.4665 10.25 8.5V6.5Z" stroke="white" stroke-width="1.5"/>
<path d="M8.75 15C8.75 13.7574 9.75736 12.75 11 12.75H13C14.2426 12.75 15.25 13.7574 15.25 15V16C15.25 17.2426 14.2426 18.25 13 18.25H11C9.75736 18.25 8.75 17.2426 8.75 16V15Z" stroke="white" stroke-width="1.5"/>
</svg>
