<svg width="22" height="22" viewBox="0 0 22 22" fill="none" xmlns="http://www.w3.org/2000/svg">
<path d="M21.1469 19.1919C21.0482 19.9257 20.8678 20.3142 20.591 20.591C20.3142 20.8678 19.9257 21.0482 19.1919 21.1469C18.4365 21.2484 17.4354 21.25 16 21.25L11 21.25C8.15431 21.25 6.89773 21.2419 5.89543 20.9378C3.57833 20.2349 1.76507 18.4217 1.06218 16.1046C0.758142 15.1023 0.750001 13.8457 0.750001 11C0.750002 8.15431 0.758142 6.89773 1.06218 5.89544C1.76507 3.57832 3.57833 1.76507 5.89544 1.06218C6.89773 0.75814 8.15431 0.749999 11 0.75C13.8457 0.75 15.1023 0.75814 16.1046 1.06218C18.4217 1.76507 20.2349 3.57833 20.9378 5.89544C21.2419 6.89773 21.25 8.15431 21.25 11L21.25 16C21.25 17.4354 21.2484 18.4365 21.1469 19.1919Z" stroke="#424038" stroke-width="1.5"/>
<path d="M9 14L13 14" stroke="#424038" stroke-width="1.5" stroke-linecap="round" stroke-linejoin="round"/>
<path d="M6 9L16 9" stroke="#424038" stroke-width="1.5" stroke-linecap="round" stroke-linejoin="round"/>
</svg>
