<svg width="20" height="22" viewBox="0 0 20 22" fill="none" xmlns="http://www.w3.org/2000/svg">
<path d="M16.75 1L17.3666 0.573093L17.1429 0.25H16.75V1ZM18.5484 3.59768L17.9317 4.02458L17.9525 4.05464L17.9762 4.08253L18.5484 3.59768ZM3.24997 1V0.25H2.85701L2.63333 0.573092L3.24997 1ZM1.45133 3.59803L2.02364 4.08276L2.04722 4.05493L2.06798 4.02494L1.45133 3.59803ZM5.5 4.8L6.25 4.79992H4.75L5.5 4.8ZM10 4.8L10.75 4.79992H9.25L10 4.8ZM14.5 4.8L15.25 4.79992H13.75L14.5 4.8ZM16.1333 1.42691L17.9317 4.02458L19.165 3.17077L17.3666 0.573093L16.1333 1.42691ZM3.24997 1.75H16.75V0.25H3.24997V1.75ZM2.06798 4.02494L3.86662 1.42691L2.63333 0.573092L0.834689 3.17113L2.06798 4.02494ZM0.879022 3.11331C0.490895 3.57157 0.25 4.15642 0.25 4.7998H1.75C1.75 4.54111 1.84504 4.29364 2.02364 4.08276L0.879022 3.11331ZM0.25 4.7998C0.25 6.39919 1.67863 7.5498 3.25 7.5498V6.0498C2.33609 6.0498 1.75 5.40956 1.75 4.7998H0.25ZM3.25 7.5498C4.82128 7.5498 6.24983 6.39933 6.25 4.80008L4.75 4.79992C4.74993 5.40963 4.16385 6.0498 3.25 6.0498V7.5498ZM4.75 4.80008C4.75017 6.39933 6.17872 7.5498 7.75 7.5498V6.0498C6.83615 6.0498 6.25007 5.40963 6.25 4.79992L4.75 4.80008ZM7.75 7.5498C9.32128 7.5498 10.7498 6.39933 10.75 4.80008L9.25 4.79992C9.24994 5.40963 8.66385 6.0498 7.75 6.0498V7.5498ZM9.25 4.80008C9.25017 6.39933 10.6787 7.5498 12.25 7.5498V6.0498C11.3361 6.0498 10.7501 5.40963 10.75 4.79992L9.25 4.80008ZM12.25 7.5498C13.8213 7.5498 15.2498 6.39933 15.25 4.80008L13.75 4.79992C13.7499 5.40963 13.1639 6.0498 12.25 6.0498V7.5498ZM13.75 4.80008C13.7502 6.39933 15.1787 7.5498 16.75 7.5498V6.0498C15.8361 6.0498 15.2501 5.40963 15.25 4.79992L13.75 4.80008ZM16.75 7.5498C18.3214 7.5498 19.75 6.39919 19.75 4.7998H18.25C18.25 5.40956 17.6639 6.0498 16.75 6.0498V7.5498ZM19.75 4.7998C19.75 4.15619 19.5089 3.57115 19.1206 3.11282L17.9762 4.08253C18.1549 4.29346 18.25 4.54102 18.25 4.7998H19.75Z" fill="#908D85"/>
<mask id="path-2-inside-1_1466_140" fill="white">
<path fill-rule="evenodd" clip-rule="evenodd" d="M16.8856 8.87222C16.0019 8.3999 14.8346 8.3999 12.5 8.3999H7.5C5.16537 8.3999 3.99805 8.3999 3.11441 8.87222C2.4167 9.24515 1.84525 9.8166 1.47232 10.5143C1 11.398 1 12.5653 1 14.8999C1 17.2345 1 18.4019 1.47231 19.2855C1.84525 19.9832 2.4167 20.5547 3.11441 20.9276C3.99805 21.3999 5.16537 21.3999 7.5 21.3999H8V16.8999C8 15.7953 8.89543 14.8999 10 14.8999C11.1046 14.8999 12 15.7953 12 16.8999V21.3999L12.5 21.3999C14.8346 21.3999 16.0019 21.3999 16.8856 20.9276C17.5833 20.5547 18.1548 19.9832 18.5277 19.2855C19 18.4019 19 17.2345 19 14.8999C19 12.5653 19 11.398 18.5277 10.5143C18.1548 9.81661 17.5833 9.24515 16.8856 8.87222Z"/>
</mask>
<path d="M16.8856 8.87222L17.5927 7.54934L17.5927 7.54934L16.8856 8.87222ZM3.11441 8.87222L2.40732 7.54933L2.40732 7.54933L3.11441 8.87222ZM1.47232 10.5143L0.149433 9.80722L0.149433 9.80722L1.47232 10.5143ZM1.47231 19.2855L0.149432 19.9926L0.149433 19.9926L1.47231 19.2855ZM3.11441 20.9276L3.82151 19.6047H3.82151L3.11441 20.9276ZM8 21.3999V22.8999H9.5V21.3999H8ZM12 21.3999H10.5V22.8999L12 22.8999L12 21.3999ZM12.5 21.3999L12.5 22.8999H12.5V21.3999ZM16.8856 20.9276L17.5927 22.2505L17.5927 22.2505L16.8856 20.9276ZM18.5277 19.2855L19.8506 19.9926V19.9926L18.5277 19.2855ZM18.5277 10.5143L19.8506 9.80722V9.80722L18.5277 10.5143ZM12.5 9.8999C13.6931 9.8999 14.494 9.90117 15.1098 9.95354C15.7069 10.0043 15.991 10.0949 16.1785 10.1951L17.5927 7.54934C16.8965 7.17723 16.1551 7.03162 15.364 6.96434C14.5916 6.89864 13.6415 6.8999 12.5 6.8999V9.8999ZM7.5 9.8999H12.5V6.8999H7.5V9.8999ZM3.82151 10.1951C4.00899 10.0949 4.29305 10.0043 4.89021 9.95354C5.506 9.90117 6.30687 9.8999 7.5 9.8999V6.8999C6.3585 6.8999 5.40839 6.89864 4.63596 6.96434C3.84489 7.03162 3.10347 7.17723 2.40732 7.54933L3.82151 10.1951ZM2.7952 11.2214C3.02828 10.7853 3.38544 10.4282 3.82151 10.1951L2.40732 7.54933C1.44797 8.06212 0.662217 8.84787 0.149433 9.80722L2.7952 11.2214ZM2.5 14.8999C2.5 13.7068 2.50126 12.9059 2.55364 12.2901C2.60444 11.693 2.69498 11.4089 2.7952 11.2214L0.149433 9.80722C-0.222669 10.5034 -0.368278 11.2448 -0.435564 12.0359C-0.501265 12.8083 -0.5 13.7584 -0.5 14.8999H2.5ZM2.7952 18.5784C2.69498 18.3909 2.60444 18.1069 2.55364 17.5097C2.50126 16.8939 2.5 16.093 2.5 14.8999H-0.5C-0.5 16.0414 -0.501265 16.9915 -0.435564 17.7639C-0.368278 18.555 -0.22267 19.2964 0.149432 19.9926L2.7952 18.5784ZM3.82151 19.6047C3.38544 19.3716 3.02828 19.0145 2.7952 18.5784L0.149433 19.9926C0.662217 20.9519 1.44797 21.7377 2.40732 22.2505L3.82151 19.6047ZM7.5 19.8999C6.30687 19.8999 5.506 19.8986 4.89021 19.8463C4.29305 19.7955 4.00899 19.7049 3.82151 19.6047L2.40732 22.2505C3.10347 22.6226 3.84489 22.7682 4.63596 22.8355C5.40839 22.9012 6.3585 22.8999 7.5 22.8999V19.8999ZM8 19.8999H7.5V22.8999H8V19.8999ZM9.5 21.3999V16.8999H6.5V21.3999H9.5ZM9.5 16.8999C9.5 16.6238 9.72386 16.3999 10 16.3999V13.3999C8.067 13.3999 6.5 14.9669 6.5 16.8999H9.5ZM10 16.3999C10.2761 16.3999 10.5 16.6238 10.5 16.8999H13.5C13.5 14.9669 11.933 13.3999 10 13.3999V16.3999ZM10.5 16.8999V21.3999H13.5V16.8999H10.5ZM12.5 19.8999L12 19.8999L12 22.8999L12.5 22.8999L12.5 19.8999ZM16.1785 19.6047C15.991 19.7049 15.7069 19.7955 15.1098 19.8463C14.494 19.8986 13.6931 19.8999 12.5 19.8999V22.8999C13.6415 22.8999 14.5916 22.9012 15.364 22.8355C16.1551 22.7682 16.8965 22.6226 17.5927 22.2505L16.1785 19.6047ZM17.2048 18.5784C16.9717 19.0145 16.6146 19.3716 16.1785 19.6047L17.5927 22.2505C18.552 21.7377 19.3378 20.9519 19.8506 19.9926L17.2048 18.5784ZM17.5 14.8999C17.5 16.093 17.4987 16.8939 17.4464 17.5097C17.3956 18.1069 17.305 18.3909 17.2048 18.5784L19.8506 19.9926C20.2227 19.2964 20.3683 18.555 20.4356 17.7639C20.5013 16.9915 20.5 16.0414 20.5 14.8999H17.5ZM17.2048 11.2214C17.305 11.4089 17.3956 11.693 17.4464 12.2901C17.4987 12.9059 17.5 13.7068 17.5 14.8999H20.5C20.5 13.7584 20.5013 12.8083 20.4356 12.0359C20.3683 11.2448 20.2227 10.5034 19.8506 9.80722L17.2048 11.2214ZM16.1785 10.1951C16.6146 10.4282 16.9717 10.7853 17.2048 11.2214L19.8506 9.80722C19.3378 8.84787 18.552 8.06212 17.5927 7.54934L16.1785 10.1951Z" fill="#908D85" mask="url(#path-2-inside-1_1466_140)"/>
</svg>
