<svg xmlns="http://www.w3.org/2000/svg" width="30" height="30" viewBox="0 0 30 30">
  <g id="Layer_5" data-name="Layer 5" transform="translate(-1 -1)">
    <path id="Path_5" data-name="Path 5" d="M16,31A15,15,0,1,1,31,16,15,15,0,0,1,16,31ZM16,3A13,13,0,1,0,29,16,13,13,0,0,0,16,3Z" fill="#101820"/>
    <path id="Path_6" data-name="Path 6" d="M21,17H11a1,1,0,0,1,0-2H21a1,1,0,0,1,0,2Z" fill="#101820"/>
    <path id="Path_7" data-name="Path 7" d="M21,12H11a1,1,0,0,1,0-2H21a1,1,0,0,1,0,2Z" fill="#101820"/>
    <path id="Path_8" data-name="Path 8" d="M21,22H11a1,1,0,0,1,0-2H21a1,1,0,0,1,0,2Z" fill="#101820"/>
  </g>
</svg>
