<svg width="24" height="29" viewBox="0 0 24 29" fill="none" xmlns="http://www.w3.org/2000/svg">
<path fill-rule="evenodd" clip-rule="evenodd" d="M20.0418 3.77847C15.7461 -0.517301 8.78126 -0.517301 4.4855 3.77847L4.13194 4.13202C-0.359085 8.62305 -0.359085 15.9044 4.13194 20.3955L12.2637 28.5272L20.3954 20.3955C24.8864 15.9044 24.8864 8.62305 20.3954 4.13202L20.0418 3.77847ZM14.7322 6.28885C13.5606 5.11728 11.6611 5.11727 10.4895 6.28885L7.12132 9.65705C5.94975 10.8286 5.94974 12.7281 7.12132 13.8997L10.4895 17.2679C11.6611 18.4395 13.5606 18.4395 14.7322 17.2679L18.1004 13.8997C19.2719 12.7281 19.2719 10.8286 18.1004 9.65705L14.7322 6.28885Z" fill="#424038"/>
</svg>
