<svg width="12" height="14" viewBox="0 0 12 14" fill="none" xmlns="http://www.w3.org/2000/svg">
<mask id="path-1-inside-1_432_376" fill="white">
<path fill-rule="evenodd" clip-rule="evenodd" d="M1.75736 1.75736C-0.585786 4.1005 -0.585786 7.8995 1.75736 10.2426L4.58579 13.0711C5.36683 13.8521 6.63316 13.8521 7.41421 13.0711L10.2426 10.2426C12.5858 7.8995 12.5858 4.1005 10.2426 1.75736C7.89949 -0.585786 4.1005 -0.585786 1.75736 1.75736ZM6.00001 7C6.55229 7 7.00001 6.55228 7.00001 6C7.00001 5.44772 6.55229 5 6.00001 5C5.44772 5 5.00001 5.44772 5.00001 6C5.00001 6.55228 5.44772 7 6.00001 7Z"/>
</mask>
<path d="M1.75736 10.2426L2.81802 9.18198L1.75736 10.2426ZM1.75736 1.75736L2.81802 2.81802L1.75736 1.75736ZM4.58579 13.0711L5.64645 12.0104L4.58579 13.0711ZM7.41421 13.0711L8.47487 14.1317L8.47487 14.1317L7.41421 13.0711ZM10.2426 10.2426L9.18198 9.18198L10.2426 10.2426ZM10.2426 1.75736L9.18198 2.81802V2.81802L10.2426 1.75736ZM2.81802 9.18198C1.06066 7.42462 1.06066 4.57538 2.81802 2.81802L0.696699 0.696699C-2.23223 3.62563 -2.23223 8.37437 0.696699 11.3033L2.81802 9.18198ZM5.64645 12.0104L2.81802 9.18198L0.696699 11.3033L3.52513 14.1317L5.64645 12.0104ZM6.35355 12.0104C6.15829 12.2057 5.84171 12.2057 5.64645 12.0104L3.52513 14.1317C4.89196 15.4986 7.10804 15.4986 8.47487 14.1317L6.35355 12.0104ZM9.18198 9.18198L6.35355 12.0104L8.47487 14.1317L11.3033 11.3033L9.18198 9.18198ZM9.18198 2.81802C10.9393 4.57538 10.9393 7.42462 9.18198 9.18198L11.3033 11.3033C14.2322 8.37437 14.2322 3.62563 11.3033 0.696699L9.18198 2.81802ZM2.81802 2.81802C4.57538 1.06066 7.42462 1.06066 9.18198 2.81802L11.3033 0.696699C8.37437 -2.23223 3.62563 -2.23223 0.696699 0.696699L2.81802 2.81802ZM5.50001 6C5.50001 5.72386 5.72387 5.5 6.00001 5.5V8.5C7.38072 8.5 8.50001 7.38071 8.50001 6H5.50001ZM6.00001 6.5C5.72387 6.5 5.50001 6.27614 5.50001 6H8.50001C8.50001 4.61929 7.38072 3.5 6.00001 3.5V6.5ZM6.50001 6C6.50001 6.27614 6.27615 6.5 6.00001 6.5V3.5C4.6193 3.5 3.50001 4.61929 3.50001 6H6.50001ZM6.00001 5.5C6.27615 5.5 6.50001 5.72386 6.50001 6H3.50001C3.50001 7.38071 4.6193 8.5 6.00001 8.5V5.5Z" fill="white" mask="url(#path-1-inside-1_432_376)"/>
</svg>
