<svg width="22" height="22" viewBox="0 0 22 22" fill="none" xmlns="http://www.w3.org/2000/svg">
<path d="M11 2.75C11.9465 2.75 12.3654 2.75091 12.7106 2.78491C16.1528 3.12393 18.8761 5.84724 19.2151 9.28938C19.2491 9.63459 19.25 10.0535 19.25 11L19.25 15.0909C19.25 15.9957 19.2493 16.6264 19.2069 17.1163C19.1653 17.5967 19.0879 17.8711 18.9748 18.0783L19.6307 18.4365L18.9748 18.0783C18.7681 18.4569 18.4569 18.7681 18.0783 18.9748C17.8711 19.0879 17.5967 19.1653 17.1163 19.2069C16.6264 19.2493 15.9957 19.25 15.0909 19.25L11 19.25C10.0535 19.25 9.63459 19.2491 9.28938 19.2151C5.84724 18.8761 3.12393 16.1528 2.78491 12.7106C2.75091 12.3654 2.75 11.9465 2.75 11C2.75 10.0535 2.75091 9.63459 2.78491 9.28938C3.12393 5.84724 5.84724 3.12393 9.28938 2.78491C9.63459 2.75091 10.0535 2.75 11 2.75Z" stroke="#424038" stroke-width="1.5"/>
<path d="M9 13L13 13" stroke="#424038" stroke-width="1.5" stroke-linecap="round" stroke-linejoin="round"/>
<path d="M7 9L15 9" stroke="#424038" stroke-width="1.5" stroke-linecap="round" stroke-linejoin="round"/>
</svg>
