<svg width="13" height="16" viewBox="0 0 13 16" fill="none" xmlns="http://www.w3.org/2000/svg">
<path d="M2.25 3.5C2.25 2.5335 3.0335 1.75 4 1.75C4.9665 1.75 5.75 2.5335 5.75 3.5V5.5C5.75 6.4665 4.9665 7.25 4 7.25C3.0335 7.25 2.25 6.4665 2.25 5.5V3.5Z" stroke="#BFBDB6" stroke-width="1.5"/>
<path d="M0.75 12C0.75 10.7574 1.75736 9.75 3 9.75H5C6.24264 9.75 7.25 10.7574 7.25 12V13C7.25 14.2426 6.24264 15.25 5 15.25H3C1.75736 15.25 0.75 14.2426 0.75 13V12Z" stroke="#BFBDB6" stroke-width="1.5"/>
<path d="M7.5 3L9 4.5L12 1.5" stroke="#BFBDB6" stroke-width="1.5"/>
</svg>
