<svg width="12" height="14" viewBox="0 0 12 14" fill="none" xmlns="http://www.w3.org/2000/svg">
<mask id="path-1-inside-1_672_4827" fill="white">
<path fill-rule="evenodd" clip-rule="evenodd" d="M10.2426 10.2426L7.41421 13.0711C6.63316 13.8521 5.36683 13.8521 4.58579 13.0711L1.75736 10.2426C-0.585786 7.8995 -0.585786 4.1005 1.75736 1.75736C4.1005 -0.585786 7.89949 -0.585786 10.2426 1.75736C12.5858 4.1005 12.5858 7.8995 10.2426 10.2426ZM6.00007 7C6.55235 7 7.00007 6.55228 7.00007 6C7.00007 5.44772 6.55235 5 6.00007 5C5.44779 5 5.00007 5.44772 5.00007 6C5.00007 6.55228 5.44779 7 6.00007 7Z"/>
</mask>
<path d="M7.41421 13.0711L8.47487 14.1317L8.47487 14.1317L7.41421 13.0711ZM10.2426 10.2426L9.18198 9.18198L10.2426 10.2426ZM4.58579 13.0711L5.64645 12.0104L4.58579 13.0711ZM1.75736 10.2426L2.81802 9.18198L1.75736 10.2426ZM1.75736 1.75736L0.696699 0.696699L1.75736 1.75736ZM10.2426 1.75736L9.18198 2.81802V2.81802L10.2426 1.75736ZM8.47487 14.1317L11.3033 11.3033L9.18198 9.18198L6.35355 12.0104L8.47487 14.1317ZM3.52513 14.1317C4.89196 15.4986 7.10804 15.4986 8.47487 14.1317L6.35355 12.0104C6.15829 12.2057 5.84171 12.2057 5.64645 12.0104L3.52513 14.1317ZM0.696699 11.3033L3.52513 14.1317L5.64645 12.0104L2.81802 9.18198L0.696699 11.3033ZM0.696699 0.696699C-2.23223 3.62563 -2.23223 8.37437 0.696699 11.3033L2.81802 9.18198C1.06066 7.42462 1.06066 4.57538 2.81802 2.81802L0.696699 0.696699ZM11.3033 0.696699C8.37437 -2.23223 3.62563 -2.23223 0.696699 0.696699L2.81802 2.81802C4.57538 1.06066 7.42462 1.06066 9.18198 2.81802L11.3033 0.696699ZM11.3033 11.3033C14.2322 8.37437 14.2322 3.62563 11.3033 0.696699L9.18198 2.81802C10.9393 4.57538 10.9393 7.42462 9.18198 9.18198L11.3033 11.3033ZM5.50007 6C5.50007 5.72386 5.72393 5.5 6.00007 5.5V8.5C7.38078 8.5 8.50007 7.38071 8.50007 6H5.50007ZM6.00007 6.5C5.72393 6.5 5.50007 6.27614 5.50007 6H8.50007C8.50007 4.61929 7.38078 3.5 6.00007 3.5V6.5ZM6.50007 6C6.50007 6.27614 6.27621 6.5 6.00007 6.5V3.5C4.61936 3.5 3.50007 4.61929 3.50007 6H6.50007ZM6.00007 5.5C6.27621 5.5 6.50007 5.72386 6.50007 6H3.50007C3.50007 7.38071 4.61936 8.5 6.00007 8.5V5.5Z" fill="#BFBDB6" mask="url(#path-1-inside-1_672_4827)"/>
</svg>
