<svg width="17" height="17" viewBox="0 0 17 17" fill="none" xmlns="http://www.w3.org/2000/svg">
<path d="M4.77297 12.1977C2.72272 10.1474 2.72272 6.82329 4.77297 4.77304C6.82322 2.72279 10.1473 2.72279 12.1976 4.77304C14.2478 6.82329 14.2478 10.1474 12.1976 12.1977C10.1473 14.2479 6.82322 14.2479 4.77297 12.1977Z" stroke="#BFBDB6" stroke-width="1.5"/>
<path d="M13.4854 2.99994L9.98535 3.49994L10.4854 6.99994" stroke="#BFBDB6" stroke-width="1.5"/>
<path d="M9.48535 8.49994C9.48535 9.05222 9.03764 9.49994 8.48535 9.49994C7.93307 9.49994 7.48535 9.05222 7.48535 8.49994C7.48535 7.94765 7.93307 7.49994 8.48535 7.49994C9.03764 7.49994 9.48535 7.94765 9.48535 8.49994Z" fill="#BFBDB6"/>
</svg>
