<svg width="16" height="11" viewBox="0 0 16 11" fill="none" xmlns="http://www.w3.org/2000/svg">
<path d="M13 11V6C13 3.23858 10.7614 1 8 1V1C5.23858 1 3 3.23858 3 6V11" stroke="#BFBDB6" stroke-width="1.5"/>
<path d="M0.5 9.5C0.5 8.67157 1.17157 8 2 8C2.82843 8 3.5 8.67157 3.5 9.5C3.5 10.3284 2.82843 11 2 11C1.17157 11 0.5 10.3284 0.5 9.5Z" fill="#BFBDB6"/>
<path d="M12.5 9.5C12.5 8.67157 13.1716 8 14 8C14.8284 8 15.5 8.67157 15.5 9.5C15.5 10.3284 14.8284 11 14 11C13.1716 11 12.5 10.3284 12.5 9.5Z" fill="#BFBDB6"/>
</svg>
