<svg width="17" height="18" viewBox="0 0 17 18" fill="none" xmlns="http://www.w3.org/2000/svg">
<path d="M6.98386 2.18338L0.99005 8.17719C0.702018 8.46523 0.702018 8.93156 0.99005 9.2196C1.27808 9.50763 1.74442 9.50763 2.03245 9.2196L8.02627 3.22578C9.71331 1.53874 12.4702 1.52502 14.171 3.22578C15.8717 4.92654 15.8717 7.66971 14.171 9.37047L8.17714 15.3643C7.14845 16.393 5.47512 16.393 4.44644 15.3643C3.41775 14.3356 3.41775 12.6623 4.44644 11.6336L10.4402 5.63977C10.8106 5.26944 11.4141 5.26944 11.7844 5.63977C12.1547 6.01009 12.1547 6.61359 11.7844 6.98392L5.79059 12.9777C5.50255 13.2658 5.50255 13.7321 5.79059 14.0201C6.07862 14.3082 6.54496 14.3082 6.83299 14.0201L12.8268 8.02632C13.7732 7.07993 13.7595 5.53004 12.8131 4.58365C11.8667 3.63726 10.3168 3.62354 9.3567 4.58365L3.3766 10.5637C1.77185 12.1685 1.77185 14.8019 3.3766 16.4067C4.98135 18.0114 7.61479 18.0114 9.21954 16.4067L15.2134 10.4129C17.4902 8.13605 17.4765 4.44649 15.2134 2.18338C12.9502 -0.0797286 9.24697 -0.0797293 6.98386 2.18338Z" fill="#424038"/>
</svg>
