<svg width="19" height="19" viewBox="0 0 19 19" fill="none" xmlns="http://www.w3.org/2000/svg">
<mask id="path-1-inside-1_897_705" fill="white">
<rect width="5" height="5" rx="1"/>
</mask>
<rect width="5" height="5" rx="1" stroke="#908D85" stroke-width="3" mask="url(#path-1-inside-1_897_705)"/>
<mask id="path-2-inside-2_897_705" fill="white">
<rect x="7" width="5" height="5" rx="1"/>
</mask>
<rect x="7" width="5" height="5" rx="1" stroke="#908D85" stroke-width="3" mask="url(#path-2-inside-2_897_705)"/>
<mask id="path-3-inside-3_897_705" fill="white">
<rect x="14" width="5" height="5" rx="1"/>
</mask>
<rect x="14" width="5" height="5" rx="1" stroke="#908D85" stroke-width="3" mask="url(#path-3-inside-3_897_705)"/>
<mask id="path-4-inside-4_897_705" fill="white">
<rect x="7" y="7" width="5" height="5" rx="1"/>
</mask>
<rect x="7" y="7" width="5" height="5" rx="1" stroke="#908D85" stroke-width="3" mask="url(#path-4-inside-4_897_705)"/>
<mask id="path-5-inside-5_897_705" fill="white">
<rect y="7" width="5" height="5" rx="1"/>
</mask>
<rect y="7" width="5" height="5" rx="1" stroke="#908D85" stroke-width="3" mask="url(#path-5-inside-5_897_705)"/>
<mask id="path-6-inside-6_897_705" fill="white">
<rect x="14" y="7" width="5" height="5" rx="1"/>
</mask>
<rect x="14" y="7" width="5" height="5" rx="1" stroke="#908D85" stroke-width="3" mask="url(#path-6-inside-6_897_705)"/>
<mask id="path-7-inside-7_897_705" fill="white">
<rect x="7" y="14" width="5" height="5" rx="1"/>
</mask>
<rect x="7" y="14" width="5" height="5" rx="1" stroke="#908D85" stroke-width="3" mask="url(#path-7-inside-7_897_705)"/>
<mask id="path-8-inside-8_897_705" fill="white">
<rect y="14" width="5" height="5" rx="1"/>
</mask>
<rect y="14" width="5" height="5" rx="1" stroke="#908D85" stroke-width="3" mask="url(#path-8-inside-8_897_705)"/>
<mask id="path-9-inside-9_897_705" fill="white">
<rect x="14" y="14" width="5" height="5" rx="1"/>
</mask>
<rect x="14" y="14" width="5" height="5" rx="1" stroke="#908D85" stroke-width="3" mask="url(#path-9-inside-9_897_705)"/>
</svg>
