<svg width="22" height="22" viewBox="0 0 22 22" fill="none" xmlns="http://www.w3.org/2000/svg">
<path d="M10.784 1.86106C10.8804 1.6955 11.1196 1.6955 11.216 1.86106L14.0095 6.65718L14.6576 6.2797L14.0095 6.65718C14.2568 7.08173 14.6711 7.38278 15.1513 7.48676L20.5759 8.66144C20.7632 8.70199 20.8371 8.92947 20.7095 9.07235L17.0113 13.2112C16.684 13.5776 16.5257 14.0647 16.5752 14.5535L17.1343 20.0756C17.1536 20.2662 16.9601 20.4068 16.7847 20.3296L11.7057 18.0914C11.2561 17.8933 10.7439 17.8933 10.2943 18.0914L5.21525 20.3296C5.03992 20.4068 4.84641 20.2662 4.86571 20.0756L5.42482 14.5535C5.47431 14.0647 5.31604 13.5776 4.98868 13.2112L1.29054 9.07235C1.16288 8.92947 1.23679 8.70199 1.42405 8.66144L6.84866 7.48676C7.32885 7.38278 7.74321 7.08173 7.99049 6.65718L7.38476 6.30437L7.99049 6.65718L10.784 1.86106Z" stroke="#908D85" stroke-width="1.5"/>
</svg>
