<svg width="34" height="34" viewBox="0 0 34 34" fill="none" xmlns="http://www.w3.org/2000/svg">
<rect y="16.9706" width="24" height="24" rx="6" transform="rotate(-45 0 16.9706)" fill="white"/>
<path d="M12.5 11.4998V13.9269C12.5 14.2433 12.2435 14.4998 11.9271 14.4998C11.5011 14.4998 11.2241 14.0516 11.4146 13.6707L12.5 11.4998Z" fill="#D9BA4B"/>
<path d="M12.75 11.9998C12.75 11.7237 12.9739 11.4998 13.25 11.4998H13.75C14.0261 11.4998 14.25 11.7237 14.25 11.9998V13.7498C14.25 14.1641 13.9142 14.4998 13.5 14.4998C13.0858 14.4998 12.75 14.1641 12.75 13.7498V11.9998Z" fill="#D9BA4B"/>
<path d="M14.5 11.9998C14.5 11.7237 14.7239 11.4998 15 11.4998H15.5C15.7761 11.4998 16 11.7237 16 11.9998V13.7498C16 14.1641 15.6642 14.4998 15.25 14.4998C14.8358 14.4998 14.5 14.1641 14.5 13.7498V11.9998Z" fill="#D9BA4B"/>
<path d="M16.25 11.9998C16.25 11.7237 16.4739 11.4998 16.75 11.4998H17.25C17.5261 11.4998 17.75 11.7237 17.75 11.9998V13.7498C17.75 14.1641 17.4142 14.4998 17 14.4998C16.5858 14.4998 16.25 14.1641 16.25 13.7498V11.9998Z" fill="#D9BA4B"/>
<path d="M18 11.9998C18 11.7237 18.2239 11.4998 18.5 11.4998H19C19.2761 11.4998 19.5 11.7237 19.5 11.9998V13.7498C19.5 14.1641 19.1642 14.4998 18.75 14.4998C18.3358 14.4998 18 14.1641 18 13.7498V11.9998Z" fill="#D9BA4B"/>
<path d="M19.75 11.9998C19.75 11.7237 19.9739 11.4998 20.25 11.4998H20.75C21.0261 11.4998 21.25 11.7237 21.25 11.9998V13.7498C21.25 14.1641 20.9142 14.4998 20.5 14.4998C20.0858 14.4998 19.75 14.1641 19.75 13.7498V11.9998Z" fill="#D9BA4B"/>
<path d="M21.5 11.4998L22.5854 13.6707C22.7759 14.0516 22.4989 14.4998 22.0729 14.4998C21.7565 14.4998 21.5 14.2433 21.5 13.9269V11.4998Z" fill="#D9BA4B"/>
<path d="M12.5 10.9998L11.5 12.9998H22.5L21.5 10.9998H12.5Z" fill="#D9BA4B"/>
<path d="M12 15.9998C12 15.4476 12.4477 14.9998 13 14.9998H21C21.5523 14.9998 22 15.4476 22 15.9998V20.9998C22 22.1044 21.1046 22.9998 20 22.9998H14C12.8954 22.9998 12 22.1044 12 20.9998V15.9998Z" fill="#D9BA4B"/>
<path d="M15.5 20.9998C15.5 20.1714 16.1716 19.4998 17 19.4998C17.8284 19.4998 18.5 20.1714 18.5 20.9998V23.4998H15.5V20.9998Z" fill="#D9BA4B" stroke="white"/>
</svg>
