<?xml version="1.0" encoding="UTF-8" standalone="no"?>
<svg
   width="18"
   height="26"
   viewBox="0 0 18 26"
   fill="none"
   version="1.1"
   id="svg8"
   sodipodi:docname="tg.svg"
   inkscape:version="1.2.1 (9c6d41e410, 2022-07-14)"
   xmlns:inkscape="http://www.inkscape.org/namespaces/inkscape"
   xmlns:sodipodi="http://sodipodi.sourceforge.net/DTD/sodipodi-0.dtd"
   xmlns="http://www.w3.org/2000/svg"
   xmlns:svg="http://www.w3.org/2000/svg">
  <defs
     id="defs12" />
  <sodipodi:namedview
     id="namedview10"
     pagecolor="#ffffff"
     bordercolor="#000000"
     borderopacity="0.25"
     inkscape:showpageshadow="2"
     inkscape:pageopacity="0.0"
     inkscape:pagecheckerboard="0"
     inkscape:deskcolor="#d1d1d1"
     showgrid="false"
     inkscape:zoom="22.971429"
     inkscape:cx="5.3327114"
     inkscape:cy="14.039179"
     inkscape:window-width="1920"
     inkscape:window-height="991"
     inkscape:window-x="-9"
     inkscape:window-y="-9"
     inkscape:window-maximized="1"
     inkscape:current-layer="svg8" />
  <path
     d="m 8.945834,6.2089552 c -1.2487,-0.0104 -2.2487,-0.1548 -3,-0.433 -0.71652,-0.2783 -1.20348,-0.6766 -1.46087,-1.1948 -0.14609,-0.2818 -0.21913,-0.5879 -0.21913,-0.9183 0,-0.3304 0.06783,-0.67477 0.20348,-1.03303 0.04869,-0.12522 0.09913,-0.24 0.1513,-0.34435 0.05218,-0.10435 0.09913,-0.19478 0.14087,-0.2713 0.04522,-0.07652 0.08348,-0.13739 0.11478,-0.18261 0.03131,-0.0487 0.05044,-0.07826 0.0574,-0.0887 l 0.82956,0.61566 c -0.02087,0.02782 -0.04174,0.05739 -0.06261,0.08869 -0.02087,0.03131 -0.04,0.06435 -0.05739,0.09913 -0.03478,0.05913 -0.0713,0.1287 -0.10956,0.2087 -0.03826,0.07652 -0.07479,0.16348 -0.10957,0.26087 -0.16,0.44174 -0.16696,0.80694 -0.02087,1.09564 0.17044,0.3409 0.56,0.6035 1.1687,0.7878 0.60869,0.1809 1.4,0.2731 2.37391,0.2766 0.27826,0 0.58261,-0.0105 0.91304,-0.0313 0.33044,-0.0244 0.66612,-0.0661 1.00692,-0.1253 0.3444,-0.0591 0.6853,-0.1391 1.0226,-0.24 0.3409,-0.1043 0.6574,-0.2382 0.9496,-0.4017 -0.0139,-0.1565 -0.0469,-0.32 -0.0991,-0.4904 -0.0522,-0.174 -0.1148,-0.3444 -0.1878,-0.5113 -0.0731,-0.167 -0.1496,-0.32526 -0.2296,-0.47483 -0.08,-0.15304 -0.1548,-0.28695 -0.2244,-0.40174 -0.0695,-0.11826 -0.1269,-0.21217 -0.1721,-0.28173 -0.0452,-0.07305 -0.0696,-0.11131 -0.0731,-0.11479 l 0.8661,-0.56348 c 0.0035,0.00696 0.0261,0.04174 0.0678,0.10435 0.0418,0.06261 0.0922,0.14609 0.1513,0.25044 0.0592,0.10435 0.1253,0.22608 0.1983,0.36521 0.0765,0.13914 0.1513,0.29044 0.2244,0.45392 0.073,0.16 0.1408,0.32869 0.2034,0.50605 0.0626,0.1774 0.1148,0.3548 0.1566,0.5322 0.0417,0.1774 0.0678,0.3357 0.0782,0.4748 0.0139,0.1391 0.0035,0.2678 -0.0313,0.3861 -0.0313,0.1148 -0.0922,0.2243 -0.1826,0.3287 -0.087,0.1008 -0.2122,0.2035 -0.3757,0.3078 -0.1565,0.0974 -0.3391,0.1896 -0.5478,0.2765 -0.2087,0.0835 -0.4348,0.1618 -0.6782,0.2348 -0.24,0.073 -0.4905,0.1374 -0.7513,0.193 -0.2609,0.0557 -0.5235,0.1044 -0.7879,0.1461 -0.26432,0.0383 -0.52345,0.0679 -0.77736,0.0887 -0.25391,0.0174 -0.49391,0.0244 -0.72,0.0209 z m -0.07304,-5.16 -0.84522,0.84522 -0.85565,-0.85044 0.84521,-0.85042997 z m 2.1391,0.00522 -0.84519,0.85043 -0.85565,-0.85565 0.84522,-0.84521997 z"
     fill="#686868"
     id="path2" />
  <path
     d="m 1.953874,25.022855 -0.19304,-4.8365 c 0,-0.0209 0,-0.0696 0,-0.1461 0.00348,-0.0765 0.01739,-0.1635 0.04174,-0.2609 0.02435,-0.1008 0.06609,-0.2034 0.12522,-0.3078 0.05913,-0.1078 0.14434,-0.2035 0.25565,-0.2869 0.04522,-0.0348 0.09913,-0.0679 0.16174,-0.0992 0.06608,-0.0348 0.14087,-0.0591 0.22435,-0.073 0.08347,-0.0174 0.17565,-0.0244 0.27652,-0.0209 0.10435,0.0035 0.21913,0.0226 0.34435,0.0574 0.03826,-0.1183 0.08521,-0.2435 0.14086,-0.3757 0.05566,-0.1321 0.12,-0.2695 0.19305,-0.4121 0.10782,-0.2018 0.21565,-0.3792 0.32348,-0.5322 0.1113,-0.1565 0.22261,-0.2922 0.33391,-0.407 0.35478,-0.3478 0.73739,-0.5147 1.14783,-0.5008 0.28173,0.0104 0.53739,0.073 0.76695,0.1878 0.22957,0.1113 0.42783,0.2765 0.59478,0.4957 0.1287,0.1704 0.22957,0.3669 0.30261,0.5895 0.07305,0.2226 0.11826,0.4539 0.13566,0.6939 0.02087,0.2366 0.01391,0.4731 -0.02087,0.7096 -0.03131,0.2365 -0.0887,0.4539 -0.17218,0.6522 -0.10087,0.2539 -0.2313,0.4574 -0.3913,0.6104 -0.16,0.153 -0.34087,0.247 -0.54261,0.2817 -0.09739,0.014 -0.20522,0.0122 -0.32348,-0.0052 -0.11826,-0.0174 -0.25391,-0.0487 -0.40696,-0.0939 -0.15304,-0.0487 -0.32695,-0.1096 -0.52173,-0.1826 -0.19131,-0.0765 -0.41218,-0.1652 -0.66261,-0.2661 -0.19479,-0.0835 -0.38957,-0.1635 -0.58435,-0.24 -0.19131,-0.0765 -0.37391,-0.1426 -0.54783,-0.1982 -0.0313,-0.0105 -0.06087,-0.0192 -0.08869,-0.0261 -0.02435,-0.007 -0.04522,-0.0105 -0.06261,-0.0105 -0.01044,0.0522 -0.01565,0.0939 -0.01565,0.1253 l 0.18782,4.8782 z m 2.53044,-5.4835 c 0.16,0.0696 0.31478,0.1339 0.46435,0.1931 0.15304,0.0556 0.29565,0.1078 0.42782,0.1565 0.13218,0.0487 0.25218,0.087 0.36,0.1148 0.11131,0.0278 0.17913,0.0435 0.20348,0.0469 0.05217,-0.0834 0.09391,-0.1878 0.12522,-0.313 0.03478,-0.1252 0.05739,-0.2557 0.06782,-0.3913 0.01392,-0.1357 0.0174,-0.2696 0.01044,-0.4017 -0.00696,-0.1357 -0.02609,-0.254 -0.05739,-0.3548 -0.05218,-0.1774 -0.11652,-0.3148 -0.19305,-0.4122 -0.07304,-0.1009 -0.14782,-0.1757 -0.22434,-0.2244 -0.07653,-0.0486 -0.14957,-0.0782 -0.21913,-0.0886 -0.06609,-0.0105 -0.11827,-0.0157 -0.15653,-0.0157 -0.12174,-0.0035 -0.25739,0.073 -0.40695,0.2296 -0.14957,0.1565 -0.29565,0.3756 -0.43826,0.6574 -0.06261,0.1147 -0.11826,0.2313 -0.16696,0.3495 -0.04522,0.1148 -0.08696,0.2209 -0.12522,0.3183 z m 6.45178,1.3096 c 0,0.3026 -0.0452,0.5965 -0.1356,0.8817 -0.087,0.2853 -0.2105,0.56 -0.3705,0.8244 -0.1565,0.2643 -0.3443,0.5148 -0.56343,0.7513 -0.21566,0.24 -0.45218,0.4661 -0.70957,0.6783 -0.25391,0.2121 -0.52348,0.4069 -0.80869,0.5843 -0.28174,0.1809 -0.5687,0.3443 -0.86087,0.4904 l -0.4487,-0.9234 c 0.25044,-0.1287 0.49913,-0.2696 0.74609,-0.4227 0.24695,-0.153 0.48,-0.3182 0.69913,-0.4956 0.21913,-0.1774 0.42087,-0.3652 0.60522,-0.5635 0.18434,-0.1982 0.33913,-0.4052 0.46434,-0.6209 0.1287,-0.2156 0.22435,-0.44 0.28696,-0.673 0.06261,-0.2296 0.08174,-0.4678 0.05739,-0.7148 v 0.0105 c -0.02435,-0.1983 -0.06261,-0.4105 -0.11478,-0.6366 -0.0487,-0.2295 -0.10435,-0.4539 -0.16696,-0.673 -0.05913,-0.2191 -0.11826,-0.4244 -0.17739,-0.6157 -0.05565,-0.1947 -0.10435,-0.3565 -0.14609,-0.4852 l 0.98085,-0.3026 c 0.1322,0.4035 0.2609,0.7478 0.3861,1.0331 0.1287,0.2817 0.2591,0.513 0.3913,0.6939 0.1357,0.1774 0.2765,0.3078 0.4226,0.3913 0.1461,0.0835 0.3061,0.1252 0.48,0.1252 h 0.0261 c 0.0731,0 0.1409,0.0139 0.2035,0.0417 0.0626,0.0279 0.1165,0.0661 0.1617,0.1148 0.0487,0.0452 0.0852,0.0991 0.1096,0.1618 0.0278,0.0626 0.0417,0.1286 0.0417,0.1982 0,0.1461 -0.0504,0.2678 -0.1513,0.3652 -0.0974,0.0939 -0.2191,0.1409 -0.3652,0.1409 h -0.0052 c -0.0487,0 -0.1131,-0.0017 -0.1931,-0.0052 -0.0765,-0.0035 -0.1634,-0.0174 -0.2608,-0.0418 -0.0939,-0.0243 -0.1913,-0.0626 -0.2922,-0.1147 -0.1009,-0.0522 -0.1983,-0.1253 -0.2922,-0.2192 z m 0.4505,-0.1461 c 0,-0.1461 0.0521,-0.2678 0.1565,-0.3652 0.1043,-0.1009 0.24,-0.1513 0.4069,-0.1513 h 0.5479 c 0.2087,0 0.4261,-0.0017 0.6521,-0.0052 0.2261,-0.007 0.4418,-0.0279 0.647,-0.0626 0.2087,-0.0383 0.3965,-0.0957 0.5635,-0.1722 0.1704,-0.08 0.3043,-0.1931 0.4017,-0.3391 0.1148,-0.174 0.1809,-0.3635 0.1983,-0.5687 0.0208,-0.2053 0,-0.4279 -0.0626,-0.6679 -0.0383,-0.1426 -0.1339,-0.3234 -0.287,-0.5426 -0.1496,-0.2226 -0.3356,-0.4591 -0.5583,-0.7095 -0.2226,-0.2539 -0.4713,-0.5131 -0.746,-0.7774 -0.2748,-0.2644 -0.5548,-0.5113 -0.84,-0.7409 l 0.12,-1.0696 4.2887,-1.8365 0.4017,0.9496 -3.7357,1.5704 c 0.1705,0.1461 0.3566,0.3096 0.5583,0.4905 0.2017,0.1808 0.4017,0.3808 0.6,0.6 0.2644,0.2921 0.4817,0.5721 0.6522,0.84 0.1704,0.2643 0.3026,0.5165 0.3965,0.7565 0.0939,0.24 0.1565,0.4678 0.1878,0.6835 0.0313,0.2121 0.0383,0.4121 0.0209,0.6 -0.0174,0.1878 -0.0539,0.3617 -0.1096,0.5217 -0.0521,0.16 -0.1148,0.3061 -0.1878,0.4383 -0.3096,0.5495 -0.833,0.8921 -1.5704,1.0278 -0.1322,0.0243 -0.2835,0.0365 -0.4539,0.0365 h -1.6853 c -0.1669,0 -0.3026,-0.0487 -0.4069,-0.1461 -0.1044,-0.0974 -0.1565,-0.2174 -0.1565,-0.36 z m 5.3113,-8.6765 -4.1948,1.7739 0.0365,-0.6678 3.913,-1.6331 z"
     fill="#686868"
     id="path4" />
  <path
     d="m 15.261194,9.2089552 -13,2.9999998"
     stroke="#686868"
     stroke-linecap="round"
     id="path6" />
</svg>
